<?xml version="1.0" encoding="UTF-8" standalone="no"?>
<!DOCTYPE svg PUBLIC "-//W3C//DTD SVG 1.1//EN" "http://www.w3.org/Graphics/SVG/1.1/DTD/svg11.dtd">
<svg width="100%" height="100%" viewBox="0 0 200 200" version="1.1" xmlns="http://www.w3.org/2000/svg" xmlns:xlink="http://www.w3.org/1999/xlink" xml:space="preserve" xmlns:serif="http://www.serif.com/" style="fill-rule:evenodd;clip-rule:evenodd;stroke-linejoin:round;stroke-miterlimit:2;">
    <g transform="matrix(0.866025,-0.5,0.5,0.866025,-36.539,63.6735)">
        <path d="M183.672,90.566L151.035,34.023C147.656,28.164 141.426,24.57 134.668,24.57L66.445,24.57C59.687,24.57 53.457,28.184 50.078,34.023L17.422,90.566C14.043,96.426 14.043,103.633 17.422,109.473L50.078,166.016C53.457,171.875 59.687,175.469 66.445,175.469L134.648,175.469C141.406,175.469 147.637,171.855 151.016,166.016L183.672,109.473C187.051,103.633 187.051,96.426 183.672,90.566ZM165.195,109.473L141.777,150.02C138.398,155.879 132.168,159.473 125.41,159.473L75.684,159.473C68.926,159.473 62.695,155.859 59.316,150.02L35.918,109.473C32.539,103.613 32.539,96.406 35.918,90.566L59.316,50.039C62.695,44.18 68.926,40.586 75.684,40.586L125.41,40.586C132.168,40.586 138.398,44.199 141.777,50.039L165.176,90.566C168.555,96.426 168.555,103.633 165.195,109.473Z" style="fill:rgb(84,46,225);fill-rule:nonzero;"/>
    </g>
    <path d="M102.012,62.734C101.523,62.715 101.035,62.695 100.547,62.695C77.129,62.695 58.75,84.238 64.16,108.594C67.246,122.441 78.125,133.32 91.973,136.406C95.391,137.168 98.75,137.461 102.012,137.324C121.953,136.563 137.871,120.156 137.871,100.02C137.891,79.902 121.953,63.496 102.012,62.734ZM115.41,115.293C111.797,118.809 107.012,120.937 102.012,121.289L100.84,121.348C94.941,121.426 89.395,119.121 85.273,114.902C81.465,110.977 79.277,105.723 79.238,100.254C79.18,94.473 81.406,89.043 85.488,84.961C89.512,80.937 94.863,78.711 100.566,78.711C101.055,78.711 101.543,78.73 102.031,78.77C107.246,79.121 112.09,81.348 115.801,85.117C119.629,89.023 121.816,94.277 121.895,99.746C121.934,105.645 119.648,111.191 115.41,115.293Z" style="fill:rgb(84,46,225);fill-rule:nonzero;"/>
</svg>
